<?xml version="1.0" encoding="UTF-8" standalone="no"?>
<svg
   xmlns:dc="http://purl.org/dc/elements/1.1/"
   xmlns:cc="http://creativecommons.org/ns#"
   xmlns:rdf="http://www.w3.org/1999/02/22-rdf-syntax-ns#"
   xmlns:svg="http://www.w3.org/2000/svg"
   xmlns="http://www.w3.org/2000/svg"
   xmlns:sodipodi="http://sodipodi.sourceforge.net/DTD/sodipodi-0.dtd"
   xmlns:inkscape="http://www.inkscape.org/namespaces/inkscape"
   width="100"
   height="100"
   version="1.1"
   id="svg3858"
   sodipodi:docname="resume-logo.svg"
   inkscape:version="0.92.2 (30a58d1, 2017-08-07)">
  <metadata
     id="metadata3864">
    <rdf:RDF>
      <cc:Work
         rdf:about="">
        <dc:format>image/svg+xml</dc:format>
        <dc:type
           rdf:resource="http://purl.org/dc/dcmitype/StillImage" />
        <dc:title></dc:title>
      </cc:Work>
    </rdf:RDF>
  </metadata>
  <defs
     id="defs3862" />
  <sodipodi:namedview
     pagecolor="#ffffff"
     bordercolor="#666666"
     borderopacity="1"
     objecttolerance="10"
     gridtolerance="10"
     guidetolerance="10"
     inkscape:pageopacity="0"
     inkscape:pageshadow="2"
     inkscape:window-width="1626"
     inkscape:window-height="855"
     id="namedview3860"
     showgrid="false"
     inkscape:zoom="2.0899583"
     inkscape:cx="240"
     inkscape:cy="119.26799"
     inkscape:window-x="131"
     inkscape:window-y="56"
     inkscape:window-maximized="0"
     inkscape:current-layer="svg3858" />
  <g
     id="g3795"
     transform="translate(0,-380)"
     >
    <title
       id="title3792">background</title>
    <rect
       id="canvas_background"
       height="402"
       width="582"
       y="-1"
       x="-1"
       style="fill:none" />
  </g>
  <g
     id="g3856"
     transform="matrix(0.20672718,0,0,0.20672718,0.61760651,0.77095523)">
    <title
       id="title3797">Layer 1</title>
    <g
       id="svg_1">
      <g
         id="svg_2">
        <path
           id="svg_3"
           d="M 421.648,74.336 349.664,2.352 C 348.216,0.896 346.216,0 344,0 H 96 C 73.944,0 56,17.944 56,40 v 400 c 0,22.056 17.944,40 40,40 h 288 c 22.056,0 40,-17.944 40,-40 V 80 c 0,-2.216 -0.896,-4.216 -2.352,-5.664 z M 352,27.312 396.688,72 H 352 Z M 408,440 c 0,13.232 -10.768,24 -24,24 H 96 C 82.768,464 72,453.232 72,440 V 40 C 72,26.768 82.768,16 96,16 h 240 v 64 c 0,4.424 3.584,8 8,8 h 64 z"
           inkscape:connector-curvature="0"
           style="fill:#52C4DF" />
      </g>
    </g>
    <g
       id="svg_4">
      <g
         id="svg_5">
        <path
           id="svg_6"
           d="m 128,112 c -17.648,0 -32,14.352 -32,32 0,17.648 14.352,32 32,32 17.648,0 32,-14.352 32,-32 0,-17.648 -14.352,-32 -32,-32 z m 0,48 c -8.824,0 -16,-7.176 -16,-16 0,-8.824 7.176,-16 16,-16 8.824,0 16,7.176 16,16 0,8.824 -7.176,16 -16,16 z"
           inkscape:connector-curvature="0"
           style="fill:#52C4DF" />
      </g>
    </g>
    <g
       id="svg_7">
      <g
         id="svg_8">
        <path
           id="svg_9"
           d="m 128,200 c -17.648,0 -32,14.352 -32,32 0,17.648 14.352,32 32,32 17.648,0 32,-14.352 32,-32 0,-17.648 -14.352,-32 -32,-32 z m 0,48 c -8.824,0 -16,-7.176 -16,-16 0,-8.824 7.176,-16 16,-16 8.824,0 16,7.176 16,16 0,8.824 -7.176,16 -16,16 z"
           inkscape:connector-curvature="0"
           style="fill:#52C4DF" />
      </g>
    </g>
    <g
       id="svg_10">
      <g
         id="svg_11">
        <path
           id="svg_12"
           d="m 128,288 c -17.648,0 -32,14.352 -32,32 0,17.648 14.352,32 32,32 17.648,0 32,-14.352 32,-32 0,-17.648 -14.352,-32 -32,-32 z m 0,48 c -8.824,0 -16,-7.176 -16,-16 0,-8.824 7.176,-16 16,-16 8.824,0 16,7.176 16,16 0,8.824 -7.176,16 -16,16 z"
           inkscape:connector-curvature="0"
           style="fill:#52C4DF" />
      </g>
    </g>
    <g
       id="svg_13">
      <g
         id="svg_14">
        <path
           id="svg_15"
           d="m 129,375 c -17.648,0 -32,14.352 -32,32 0,17.648 14.352,32 32,32 17.648,0 32,-14.352 32,-32 0,-17.648 -14.352,-32 -32,-32 z m 0,48 c -8.824,0 -16,-7.176 -16,-16 0,-8.824 7.176,-16 16,-16 8.824,0 16,7.176 16,16 0,8.824 -7.176,16 -16,16 z"
           inkscape:connector-curvature="0"
           style="fill:#52C4DF" />
      </g>
    </g>
    <g
       id="svg_16">
      <g
         id="svg_17">
        <rect
           id="svg_18"
           height="16"
           width="208"
           y="152"
           x="175"
           style="fill:#52C4DF" />
      </g>
    </g>
    <g
       id="svg_19">
      <g
         id="svg_20">
        <rect
           id="svg_21"
           height="16"
           width="112"
           y="40"
           x="184"
           style="fill:#52C4DF" />
      </g>
    </g>
    <g
       id="svg_22">
      <g
         id="svg_23">
        <rect
           id="svg_24"
           height="16"
           width="160"
           y="72"
           x="160"
           style="fill:#52C4DF" />
      </g>
    </g>
    <g
       id="svg_25">
      <g
         id="svg_26">
        <rect
           id="svg_27"
           height="16"
           width="208"
           y="240"
           x="176"
           style="fill:#52C4DF" />
      </g>
    </g>
    <g
       id="svg_28">
      <g
         id="svg_29">
        <rect
           id="svg_30"
           height="16"
           width="208"
           y="328"
           x="176"
           style="fill:#52C4DF" />
      </g>
    </g>
    <g
       id="svg_31">
      <g
         id="svg_32">
        <rect
           id="svg_33"
           height="16"
           width="208"
           y="416"
           x="176"
           style="fill:#52C4DF" />
      </g>
    </g>
    <g
       id="svg_34">
      <g
         id="svg_35">
        <rect
           id="svg_36"
           height="16"
           width="16"
           y="120"
           x="241"
           style="fill:#52C4DF" />
      </g>
    </g>
    <g
       id="svg_37">
      <g
         id="svg_38">
        <rect
           id="svg_39"
           height="16"
           width="16"
           y="119"
           x="207"
           style="fill:#52C4DF" />
      </g>
    </g>
    <g
       id="svg_40">
      <g
         id="svg_41">
        <rect
           id="svg_42"
           height="16"
           width="16"
           y="120"
           x="176"
           style="fill:#52C4DF" />
      </g>
    </g>
    <g
       id="svg_43" />
    <g
       id="svg_44" />
    <g
       id="svg_45" />
    <g
       id="svg_46" />
    <g
       id="svg_47" />
    <g
       id="svg_48" />
    <g
       id="svg_49" />
    <g
       id="svg_50" />
    <g
       id="svg_51" />
    <g
       id="svg_52" />
    <g
       id="svg_53" />
    <g
       id="svg_54" />
    <g
       id="svg_55" />
    <g
       id="svg_56" />
    <g
       id="svg_57" />
  </g>
</svg>
